<svg width="401" height="75" viewBox="0 0 401 75" fill="none" xmlns="http://www.w3.org/2000/svg">
<path d="M28.081 14.6472C27.706 11.1472 25.2475 8.05222 21.7301 7.05073C21.0268 6.85074 20.2942 7.2598 20.0946 7.96509C19.8947 8.67034 20.3031 9.40446 21.0065 9.60478C23.3989 10.2859 25.0872 12.3521 25.4208 14.7164C26.5217 16.0579 27.4986 14.5301 28.081 14.6472ZM15.1477 26.5914C13.7198 21.2488 15.8047 16.0301 19.7948 14.9584C21.6884 14.4487 23.7492 14.9553 25.5968 16.3818C25.6051 16.3883 25.6156 16.3902 25.6241 16.3965C25.7421 16.4841 25.8732 16.5543 26.0158 16.606C26.0445 16.6164 26.0728 16.6235 26.1018 16.6321C26.1495 16.6463 26.1944 16.6654 26.2442 16.6752C26.3444 16.6949 26.4438 16.7044 26.5423 16.7044C26.7045 16.7044 26.8617 16.6751 27.0112 16.6268C27.0214 16.6236 27.0314 16.6222 27.0416 16.6187C27.1926 16.5667 27.3325 16.4897 27.46 16.3949C27.4676 16.3893 27.4769 16.3877 27.4845 16.3818C29.0939 15.1385 30.8645 14.5957 32.5465 14.8118C32.4042 15.4085 32.331 16.0225 32.331 16.6381C32.331 20.3531 34.8697 23.4487 38.339 24.2578C38.2758 25.0365 38.1402 25.8175 37.9333 26.5914C37.0746 29.8047 34.7693 32.7736 32.1969 33.9782C30.5244 34.7622 28.8402 34.7706 27.1923 34.0028C26.9857 33.9067 26.763 33.8586 26.5406 33.8586C26.3181 33.8586 26.0956 33.9067 25.8891 34.0028C24.2411 34.7706 22.5574 34.7622 20.8842 33.9782C18.312 32.7736 16.0067 29.8047 15.1477 26.5914ZM52 46.17H47.4805V36.3297H52V46.17ZM44.4984 36.3297V46.17H40.1184V36.3297H44.4984ZM38.6275 49.1596H40.8174V59H16.7743V49.1596H38.6275ZM6.05702 36.3297H37.1363V46.17H6.05702V36.3297ZM0 49.1596H6.42982V59H0V49.1596ZM9.41204 59V49.1596H13.7921V59H9.41204ZM52 59H43.7994V49.1596H52V59Z" fill="white"/>
<path d="M92.4375 43.9062H101.781C101.594 46.9688 100.75 49.6875 99.25 52.0625C97.7708 54.4375 95.6979 56.2917 93.0312 57.625C90.3854 58.9583 87.1979 59.625 83.4688 59.625C80.5521 59.625 77.9375 59.125 75.625 58.125C73.3125 57.1042 71.3333 55.6458 69.6875 53.75C68.0625 51.8542 66.8229 49.5625 65.9688 46.875C65.1146 44.1875 64.6875 41.1771 64.6875 37.8438V34.6875C64.6875 31.3542 65.125 28.3438 66 25.6562C66.8958 22.9479 68.1667 20.6458 69.8125 18.75C71.4792 16.8542 73.4688 15.3958 75.7812 14.375C78.0938 13.3542 80.6771 12.8438 83.5312 12.8438C87.3229 12.8438 90.5208 13.5312 93.125 14.9062C95.75 16.2812 97.7812 18.1771 99.2188 20.5938C100.677 23.0104 101.552 25.7604 101.844 28.8438H92.4688C92.3646 27.0104 92 25.4583 91.375 24.1875C90.75 22.8958 89.8021 21.9271 88.5312 21.2812C87.2812 20.6146 85.6146 20.2812 83.5312 20.2812C81.9688 20.2812 80.6042 20.5729 79.4375 21.1562C78.2708 21.7396 77.2917 22.625 76.5 23.8125C75.7083 25 75.1146 26.5 74.7188 28.3125C74.3438 30.1042 74.1562 32.2083 74.1562 34.625V37.8438C74.1562 40.1979 74.3333 42.2708 74.6875 44.0625C75.0417 45.8333 75.5833 47.3333 76.3125 48.5625C77.0625 49.7708 78.0208 50.6875 79.1875 51.3125C80.375 51.9167 81.8021 52.2188 83.4688 52.2188C85.4271 52.2188 87.0417 51.9062 88.3125 51.2812C89.5833 50.6562 90.5521 49.7292 91.2188 48.5C91.9062 47.2708 92.3125 45.7396 92.4375 43.9062ZM116.875 11V59H107.844V11H116.875ZM142.562 51.375V36.3125C142.562 35.2292 142.385 34.3021 142.031 33.5312C141.677 32.7396 141.125 32.125 140.375 31.6875C139.646 31.25 138.698 31.0312 137.531 31.0312C136.531 31.0312 135.667 31.2083 134.938 31.5625C134.208 31.8958 133.646 32.3854 133.25 33.0312C132.854 33.6562 132.656 34.3958 132.656 35.25H123.656C123.656 33.8125 123.99 32.4479 124.656 31.1562C125.323 29.8646 126.292 28.7292 127.562 27.75C128.833 26.75 130.344 25.9688 132.094 25.4062C133.865 24.8438 135.844 24.5625 138.031 24.5625C140.656 24.5625 142.99 25 145.031 25.875C147.073 26.75 148.677 28.0625 149.844 29.8125C151.031 31.5625 151.625 33.75 151.625 36.375V50.8438C151.625 52.6979 151.74 54.2188 151.969 55.4062C152.198 56.5729 152.531 57.5938 152.969 58.4688V59H143.875C143.438 58.0833 143.104 56.9375 142.875 55.5625C142.667 54.1667 142.562 52.7708 142.562 51.375ZM143.75 38.4062L143.812 43.5H138.781C137.594 43.5 136.562 43.6354 135.688 43.9062C134.812 44.1771 134.094 44.5625 133.531 45.0625C132.969 45.5417 132.552 46.1042 132.281 46.75C132.031 47.3958 131.906 48.1042 131.906 48.875C131.906 49.6458 132.083 50.3438 132.438 50.9688C132.792 51.5729 133.302 52.0521 133.969 52.4062C134.635 52.7396 135.417 52.9062 136.312 52.9062C137.667 52.9062 138.844 52.6354 139.844 52.0938C140.844 51.5521 141.615 50.8854 142.156 50.0938C142.719 49.3021 143.01 48.5521 143.031 47.8438L145.406 51.6562C145.073 52.5104 144.615 53.3958 144.031 54.3125C143.469 55.2292 142.75 56.0938 141.875 56.9062C141 57.6979 139.948 58.3542 138.719 58.875C137.49 59.375 136.031 59.625 134.344 59.625C132.198 59.625 130.25 59.1979 128.5 58.3438C126.771 57.4688 125.396 56.2708 124.375 54.75C123.375 53.2083 122.875 51.4583 122.875 49.5C122.875 47.7292 123.208 46.1562 123.875 44.7812C124.542 43.4062 125.521 42.25 126.812 41.3125C128.125 40.3542 129.76 39.6354 131.719 39.1562C133.677 38.6562 135.948 38.4062 138.531 38.4062H143.75ZM176.844 49.6562C176.844 49.0104 176.656 48.4271 176.281 47.9062C175.906 47.3854 175.208 46.9062 174.188 46.4688C173.188 46.0104 171.74 45.5938 169.844 45.2188C168.135 44.8438 166.542 44.375 165.062 43.8125C163.604 43.2292 162.333 42.5312 161.25 41.7188C160.188 40.9062 159.354 39.9479 158.75 38.8438C158.146 37.7188 157.844 36.4375 157.844 35C157.844 33.5833 158.146 32.25 158.75 31C159.375 29.75 160.26 28.6458 161.406 27.6875C162.573 26.7083 163.99 25.9479 165.656 25.4062C167.344 24.8438 169.24 24.5625 171.344 24.5625C174.281 24.5625 176.802 25.0312 178.906 25.9688C181.031 26.9062 182.656 28.1979 183.781 29.8438C184.927 31.4688 185.5 33.3229 185.5 35.4062H176.5C176.5 34.5312 176.312 33.75 175.938 33.0625C175.583 32.3542 175.021 31.8021 174.25 31.4062C173.5 30.9896 172.521 30.7812 171.312 30.7812C170.312 30.7812 169.448 30.9583 168.719 31.3125C167.99 31.6458 167.427 32.1042 167.031 32.6875C166.656 33.25 166.469 33.875 166.469 34.5625C166.469 35.0833 166.573 35.5521 166.781 35.9688C167.01 36.3646 167.375 36.7292 167.875 37.0625C168.375 37.3958 169.021 37.7083 169.812 38C170.625 38.2708 171.625 38.5208 172.812 38.75C175.25 39.25 177.427 39.9062 179.344 40.7188C181.26 41.5104 182.781 42.5938 183.906 43.9688C185.031 45.3229 185.594 47.1042 185.594 49.3125C185.594 50.8125 185.26 52.1875 184.594 53.4375C183.927 54.6875 182.969 55.7812 181.719 56.7188C180.469 57.6354 178.969 58.3542 177.219 58.875C175.49 59.375 173.542 59.625 171.375 59.625C168.229 59.625 165.562 59.0625 163.375 57.9375C161.208 56.8125 159.562 55.3854 158.438 53.6562C157.333 51.9062 156.781 50.1146 156.781 48.2812H165.312C165.354 49.5104 165.667 50.5 166.25 51.25C166.854 52 167.615 52.5417 168.531 52.875C169.469 53.2083 170.479 53.375 171.562 53.375C172.729 53.375 173.698 53.2188 174.469 52.9062C175.24 52.5729 175.823 52.1354 176.219 51.5938C176.635 51.0312 176.844 50.3854 176.844 49.6562ZM209.719 49.6562C209.719 49.0104 209.531 48.4271 209.156 47.9062C208.781 47.3854 208.083 46.9062 207.062 46.4688C206.062 46.0104 204.615 45.5938 202.719 45.2188C201.01 44.8438 199.417 44.375 197.938 43.8125C196.479 43.2292 195.208 42.5312 194.125 41.7188C193.062 40.9062 192.229 39.9479 191.625 38.8438C191.021 37.7188 190.719 36.4375 190.719 35C190.719 33.5833 191.021 32.25 191.625 31C192.25 29.75 193.135 28.6458 194.281 27.6875C195.448 26.7083 196.865 25.9479 198.531 25.4062C200.219 24.8438 202.115 24.5625 204.219 24.5625C207.156 24.5625 209.677 25.0312 211.781 25.9688C213.906 26.9062 215.531 28.1979 216.656 29.8438C217.802 31.4688 218.375 33.3229 218.375 35.4062H209.375C209.375 34.5312 209.188 33.75 208.812 33.0625C208.458 32.3542 207.896 31.8021 207.125 31.4062C206.375 30.9896 205.396 30.7812 204.188 30.7812C203.188 30.7812 202.323 30.9583 201.594 31.3125C200.865 31.6458 200.302 32.1042 199.906 32.6875C199.531 33.25 199.344 33.875 199.344 34.5625C199.344 35.0833 199.448 35.5521 199.656 35.9688C199.885 36.3646 200.25 36.7292 200.75 37.0625C201.25 37.3958 201.896 37.7083 202.688 38C203.5 38.2708 204.5 38.5208 205.688 38.75C208.125 39.25 210.302 39.9062 212.219 40.7188C214.135 41.5104 215.656 42.5938 216.781 43.9688C217.906 45.3229 218.469 47.1042 218.469 49.3125C218.469 50.8125 218.135 52.1875 217.469 53.4375C216.802 54.6875 215.844 55.7812 214.594 56.7188C213.344 57.6354 211.844 58.3542 210.094 58.875C208.365 59.375 206.417 59.625 204.25 59.625C201.104 59.625 198.438 59.0625 196.25 57.9375C194.083 56.8125 192.438 55.3854 191.312 53.6562C190.208 51.9062 189.656 50.1146 189.656 48.2812H198.188C198.229 49.5104 198.542 50.5 199.125 51.25C199.729 52 200.49 52.5417 201.406 52.875C202.344 53.2083 203.354 53.375 204.438 53.375C205.604 53.375 206.573 53.2188 207.344 52.9062C208.115 52.5729 208.698 52.1354 209.094 51.5938C209.51 51.0312 209.719 50.3854 209.719 49.6562ZM251.25 43.9062H260.594C260.406 46.9688 259.562 49.6875 258.062 52.0625C256.583 54.4375 254.51 56.2917 251.844 57.625C249.198 58.9583 246.01 59.625 242.281 59.625C239.365 59.625 236.75 59.125 234.438 58.125C232.125 57.1042 230.146 55.6458 228.5 53.75C226.875 51.8542 225.635 49.5625 224.781 46.875C223.927 44.1875 223.5 41.1771 223.5 37.8438V34.6875C223.5 31.3542 223.938 28.3438 224.812 25.6562C225.708 22.9479 226.979 20.6458 228.625 18.75C230.292 16.8542 232.281 15.3958 234.594 14.375C236.906 13.3542 239.49 12.8438 242.344 12.8438C246.135 12.8438 249.333 13.5312 251.938 14.9062C254.562 16.2812 256.594 18.1771 258.031 20.5938C259.49 23.0104 260.365 25.7604 260.656 28.8438H251.281C251.177 27.0104 250.812 25.4583 250.188 24.1875C249.562 22.8958 248.615 21.9271 247.344 21.2812C246.094 20.6146 244.427 20.2812 242.344 20.2812C240.781 20.2812 239.417 20.5729 238.25 21.1562C237.083 21.7396 236.104 22.625 235.312 23.8125C234.521 25 233.927 26.5 233.531 28.3125C233.156 30.1042 232.969 32.2083 232.969 34.625V37.8438C232.969 40.1979 233.146 42.2708 233.5 44.0625C233.854 45.8333 234.396 47.3333 235.125 48.5625C235.875 49.7708 236.833 50.6875 238 51.3125C239.188 51.9167 240.615 52.2188 242.281 52.2188C244.24 52.2188 245.854 51.9062 247.125 51.2812C248.396 50.6562 249.365 49.7292 250.031 48.5C250.719 47.2708 251.125 45.7396 251.25 43.9062ZM284.438 51.375V36.3125C284.438 35.2292 284.26 34.3021 283.906 33.5312C283.552 32.7396 283 32.125 282.25 31.6875C281.521 31.25 280.573 31.0312 279.406 31.0312C278.406 31.0312 277.542 31.2083 276.812 31.5625C276.083 31.8958 275.521 32.3854 275.125 33.0312C274.729 33.6562 274.531 34.3958 274.531 35.25H265.531C265.531 33.8125 265.865 32.4479 266.531 31.1562C267.198 29.8646 268.167 28.7292 269.438 27.75C270.708 26.75 272.219 25.9688 273.969 25.4062C275.74 24.8438 277.719 24.5625 279.906 24.5625C282.531 24.5625 284.865 25 286.906 25.875C288.948 26.75 290.552 28.0625 291.719 29.8125C292.906 31.5625 293.5 33.75 293.5 36.375V50.8438C293.5 52.6979 293.615 54.2188 293.844 55.4062C294.073 56.5729 294.406 57.5938 294.844 58.4688V59H285.75C285.312 58.0833 284.979 56.9375 284.75 55.5625C284.542 54.1667 284.438 52.7708 284.438 51.375ZM285.625 38.4062L285.688 43.5H280.656C279.469 43.5 278.438 43.6354 277.562 43.9062C276.688 44.1771 275.969 44.5625 275.406 45.0625C274.844 45.5417 274.427 46.1042 274.156 46.75C273.906 47.3958 273.781 48.1042 273.781 48.875C273.781 49.6458 273.958 50.3438 274.312 50.9688C274.667 51.5729 275.177 52.0521 275.844 52.4062C276.51 52.7396 277.292 52.9062 278.188 52.9062C279.542 52.9062 280.719 52.6354 281.719 52.0938C282.719 51.5521 283.49 50.8854 284.031 50.0938C284.594 49.3021 284.885 48.5521 284.906 47.8438L287.281 51.6562C286.948 52.5104 286.49 53.3958 285.906 54.3125C285.344 55.2292 284.625 56.0938 283.75 56.9062C282.875 57.6979 281.823 58.3542 280.594 58.875C279.365 59.375 277.906 59.625 276.219 59.625C274.073 59.625 272.125 59.1979 270.375 58.3438C268.646 57.4688 267.271 56.2708 266.25 54.75C265.25 53.2083 264.75 51.4583 264.75 49.5C264.75 47.7292 265.083 46.1562 265.75 44.7812C266.417 43.4062 267.396 42.25 268.688 41.3125C270 40.3542 271.635 39.6354 273.594 39.1562C275.552 38.6562 277.823 38.4062 280.406 38.4062H285.625ZM320.438 50.9062V25.1875H329.438V59H320.969L320.438 50.9062ZM321.438 43.9688L324.094 43.9062C324.094 46.1562 323.833 48.25 323.312 50.1875C322.792 52.1042 322.01 53.7708 320.969 55.1875C319.927 56.5833 318.615 57.6771 317.031 58.4688C315.448 59.2396 313.583 59.625 311.438 59.625C309.792 59.625 308.271 59.3958 306.875 58.9375C305.5 58.4583 304.312 57.7188 303.312 56.7188C302.333 55.6979 301.562 54.3958 301 52.8125C300.458 51.2083 300.188 49.2812 300.188 47.0312V25.1875H309.188V47.0938C309.188 48.0938 309.302 48.9375 309.531 49.625C309.781 50.3125 310.125 50.875 310.562 51.3125C311 51.75 311.51 52.0625 312.094 52.25C312.698 52.4375 313.365 52.5312 314.094 52.5312C315.948 52.5312 317.406 52.1562 318.469 51.4062C319.552 50.6562 320.312 49.6354 320.75 48.3438C321.208 47.0312 321.438 45.5729 321.438 43.9688ZM354.594 49.6562C354.594 49.0104 354.406 48.4271 354.031 47.9062C353.656 47.3854 352.958 46.9062 351.938 46.4688C350.938 46.0104 349.49 45.5938 347.594 45.2188C345.885 44.8438 344.292 44.375 342.812 43.8125C341.354 43.2292 340.083 42.5312 339 41.7188C337.938 40.9062 337.104 39.9479 336.5 38.8438C335.896 37.7188 335.594 36.4375 335.594 35C335.594 33.5833 335.896 32.25 336.5 31C337.125 29.75 338.01 28.6458 339.156 27.6875C340.323 26.7083 341.74 25.9479 343.406 25.4062C345.094 24.8438 346.99 24.5625 349.094 24.5625C352.031 24.5625 354.552 25.0312 356.656 25.9688C358.781 26.9062 360.406 28.1979 361.531 29.8438C362.677 31.4688 363.25 33.3229 363.25 35.4062H354.25C354.25 34.5312 354.062 33.75 353.688 33.0625C353.333 32.3542 352.771 31.8021 352 31.4062C351.25 30.9896 350.271 30.7812 349.062 30.7812C348.062 30.7812 347.198 30.9583 346.469 31.3125C345.74 31.6458 345.177 32.1042 344.781 32.6875C344.406 33.25 344.219 33.875 344.219 34.5625C344.219 35.0833 344.323 35.5521 344.531 35.9688C344.76 36.3646 345.125 36.7292 345.625 37.0625C346.125 37.3958 346.771 37.7083 347.562 38C348.375 38.2708 349.375 38.5208 350.562 38.75C353 39.25 355.177 39.9062 357.094 40.7188C359.01 41.5104 360.531 42.5938 361.656 43.9688C362.781 45.3229 363.344 47.1042 363.344 49.3125C363.344 50.8125 363.01 52.1875 362.344 53.4375C361.677 54.6875 360.719 55.7812 359.469 56.7188C358.219 57.6354 356.719 58.3542 354.969 58.875C353.24 59.375 351.292 59.625 349.125 59.625C345.979 59.625 343.312 59.0625 341.125 57.9375C338.958 56.8125 337.312 55.3854 336.188 53.6562C335.083 51.9062 334.531 50.1146 334.531 48.2812H343.062C343.104 49.5104 343.417 50.5 344 51.25C344.604 52 345.365 52.5417 346.281 52.875C347.219 53.2083 348.229 53.375 349.312 53.375C350.479 53.375 351.448 53.2188 352.219 52.9062C352.99 52.5729 353.573 52.1354 353.969 51.5938C354.385 51.0312 354.594 50.3854 354.594 49.6562ZM384.75 59.625C382.125 59.625 379.771 59.2083 377.688 58.375C375.604 57.5208 373.833 56.3438 372.375 54.8438C370.938 53.3438 369.833 51.6042 369.062 49.625C368.292 47.625 367.906 45.5 367.906 43.25V42C367.906 39.4375 368.271 37.0938 369 34.9688C369.729 32.8438 370.771 31 372.125 29.4375C373.5 27.875 375.167 26.6771 377.125 25.8438C379.083 24.9896 381.292 24.5625 383.75 24.5625C386.146 24.5625 388.271 24.9583 390.125 25.75C391.979 26.5417 393.531 27.6667 394.781 29.125C396.052 30.5833 397.01 32.3333 397.656 34.375C398.302 36.3958 398.625 38.6458 398.625 41.125V44.875H371.75V38.875H389.781V38.1875C389.781 36.9375 389.552 35.8229 389.094 34.8438C388.656 33.8438 387.99 33.0521 387.094 32.4688C386.198 31.8854 385.052 31.5938 383.656 31.5938C382.469 31.5938 381.448 31.8542 380.594 32.375C379.74 32.8958 379.042 33.625 378.5 34.5625C377.979 35.5 377.583 36.6042 377.312 37.875C377.062 39.125 376.938 40.5 376.938 42V43.25C376.938 44.6042 377.125 45.8542 377.5 47C377.896 48.1458 378.448 49.1354 379.156 49.9688C379.885 50.8021 380.76 51.4479 381.781 51.9062C382.823 52.3646 384 52.5938 385.312 52.5938C386.938 52.5938 388.448 52.2812 389.844 51.6562C391.26 51.0104 392.479 50.0417 393.5 48.75L397.875 53.5C397.167 54.5208 396.198 55.5 394.969 56.4375C393.76 57.375 392.302 58.1458 390.594 58.75C388.885 59.3333 386.938 59.625 384.75 59.625Z" fill="white"/>
</svg>
