<svg width="74" height="74" viewBox="0 0 74 74" fill="none" xmlns="http://www.w3.org/2000/svg">
<path d="M39.8956 11.5267C39.3737 6.66866 35.9527 2.37294 31.0583 0.98289C30.0797 0.705312 29.0604 1.27307 28.7826 2.252C28.5044 3.23088 29.0727 4.24983 30.0515 4.52787C33.3804 5.47321 35.7296 8.34112 36.1938 11.6227C37.7258 13.4847 39.0851 11.3641 39.8956 11.5267ZM21.899 28.105C19.9121 20.6896 22.8133 13.4461 28.3654 11.9585C31.0003 11.2512 33.8678 11.9543 36.4388 13.9343C36.4503 13.9433 36.465 13.9459 36.4768 13.9546C36.6409 14.0762 36.8233 14.1736 37.0219 14.2455C37.0618 14.2599 37.1012 14.2697 37.1415 14.2816C37.2079 14.3013 37.2704 14.3279 37.3396 14.3415C37.479 14.3688 37.6174 14.382 37.7544 14.382C37.9801 14.382 38.1988 14.3413 38.407 14.2744C38.4211 14.2698 38.4351 14.2679 38.4492 14.2631C38.6593 14.1908 38.854 14.0841 39.0314 13.9525C39.0419 13.9446 39.0549 13.9424 39.0655 13.9343C41.305 12.2086 43.7687 11.4551 46.1092 11.7551C45.9112 12.5833 45.8093 13.4356 45.8093 14.29C45.8093 19.4463 49.3418 23.7431 54.1693 24.866C54.0814 25.9469 53.8927 27.0309 53.6048 28.105C52.41 32.5651 49.2022 36.6857 45.6227 38.3578C43.2955 39.446 40.9519 39.4576 38.6588 38.3919C38.3714 38.2585 38.0616 38.1917 37.752 38.1917C37.4425 38.1917 37.1329 38.2585 36.8455 38.3919C34.5523 39.4576 32.2095 39.446 29.8813 38.3578C26.3021 36.6857 23.0943 32.5651 21.899 28.105ZM73.1784 55.2798H66.8895V41.6216H73.1784V55.2798ZM62.74 41.6216V55.2798H56.6453V41.6216H62.74ZM54.5708 59.4293H57.618V73.0876H24.1624V59.4293H54.5708ZM9.24953 41.6216H52.4959V55.2798H9.24953V41.6216ZM0.821289 59.4293H9.76827V73.0876H0.821289V59.4293ZM13.918 73.0876V59.4293H20.0127V73.0876H13.918ZM73.1784 73.0876H61.7674V59.4293H73.1784V73.0876Z" fill="#1976D2"/>
</svg>
